<?xml version="1.0" encoding="UTF-8" standalone="no"?>
<svg
   xmlns:dc="http://purl.org/dc/elements/1.1/"
   xmlns:cc="http://creativecommons.org/ns#"
   xmlns:rdf="http://www.w3.org/1999/02/22-rdf-syntax-ns#"
   xmlns:svg="http://www.w3.org/2000/svg"
   xmlns="http://www.w3.org/2000/svg"
   xmlns:sodipodi="http://sodipodi.sourceforge.net/DTD/sodipodi-0.dtd"
   xmlns:inkscape="http://www.inkscape.org/namespaces/inkscape"
   version="1.0"
   width="200"
   height="200"
   viewBox="-3 -2.75 2 2"
   id="svg8"
   sodipodi:docname="trancendental.svg"
   inkscape:version="0.92.1 r">
  <metadata
     id="metadata14">
    <rdf:RDF>
      <cc:Work
         rdf:about="">
        <dc:format>image/svg+xml</dc:format>
        <dc:type
           rdf:resource="http://purl.org/dc/dcmitype/StillImage" />
        <dc:title></dc:title>
      </cc:Work>
    </rdf:RDF>
  </metadata>
  <defs
     id="defs12" />
  <sodipodi:namedview
     pagecolor="#ffffff"
     bordercolor="#666666"
     borderopacity="1"
     objecttolerance="10"
     gridtolerance="10"
     guidetolerance="10"
     inkscape:pageopacity="0"
     inkscape:pageshadow="2"
     inkscape:window-width="1920"
     inkscape:window-height="1019"
     id="namedview10"
     showgrid="false"
     inkscape:zoom="1.1125147"
     inkscape:cx="123.34348"
     inkscape:cy="196.01479"
     inkscape:window-x="0"
     inkscape:window-y="33"
     inkscape:window-maximized="1"
     inkscape:current-layer="svg8" />
  <path
     style="opacity:1;vector-effect:none;fill:none;fill-opacity:0.18372097;stroke:#0081cd;stroke-width:0.03;stroke-linecap:butt;stroke-linejoin:miter;stroke-miterlimit:4;stroke-dasharray:none;stroke-dashoffset:0;stroke-opacity:1;marker:none;marker-start:none;marker-mid:none;marker-end:none"
     d="m -2.0858646,-1.8374999 c 0.012619,-0.00741 0.017776,-0.024842 0.010016,-0.042086 -0.00819,-0.018639 -0.028783,-0.032872 -0.05493,-0.034379 -0.028628,-0.0017 -0.059298,0.012616 -0.080465,0.041093 -0.023387,0.031418 -0.032142,0.07565 -0.021358,0.1215612 0.012063,0.050097 0.046265,0.09624 0.096429,0.1251915 0.054194,0.031111 0.121337,0.03857 0.1850489,0.018013 0.068363,-0.022048 0.1263069,-0.074601 0.158125,-0.1467701 0.033722,-0.07699 0.034925,-0.1690241 6.07e-4,-0.2550043 -0.036426,-0.090911 -0.1090038,-0.1667607 -0.2029872,-0.2078211 -0.098846,-0.043963 -0.2126028,-0.045435 -0.3150541,-0.00213 -0.1072085,0.04529 -0.1929085,0.1359368 -0.2353116,0.2525817 -0.044422,0.1219453 -0.038362,0.2619591 0.019671,0.3883121 0.060321,0.1315919 0.1712686,0.2371483 0.3094331,0.2909279 0.1434356,0.056032 0.3039836,0.051823 0.4451731,-0.014242 0.1462408,-0.068217 0.2593968,-0.1967925 0.3129712,-0.3582597 0.054826,-0.1667262 0.041032,-0.3548552 -0.040422,-0.5217541 -0.084035,-0.1719649 -0.2333525,-0.3072301 -0.4158777,-0.374035 -0.1877295,-0.068274 -0.3948912,-0.058077 -0.5752921,0.030609 -0.1852728,0.091143 -0.3263576,0.2575164 -0.3901579,0.4640711 -0.065999,0.2115477 -0.044648,0.447484 0.0607,0.6550621 0.1079296,0.2126443 0.2956174,0.3776177 0.5224366,0.45666391 0.2322033,0.0808206 0.486158,0.0649423 0.7052975,-0.0464971 0.2240111,-0.11389771 0.3931389,-0.31854511 0.4678175,-0.56974871 0.076225,-0.256636 0.047792,-0.5402465 -0.081451,-0.7885042"
     id="path6"
     inkscape:connector-curvature="0" />
</svg>
